<?xml version="1.0" standalone="no"?><svg xmlns:xlink="http://www.w3.org/1999/xlink" xmlns="http://www.w3.org/2000/svg" viewBox="0 0 1600 1018.1889536309774" preserveAspectRatio="xMaxYMax slice"><g transform="scale(2.1802761319721142)"><rect x="0" y="0" width="733.8571428571428" height="533.7142857142857" fill="#ffffff"/><rect x="0" y="0" width="66.71" height="66.71" fill="#c8c8c8"/><rect x="0" y="0" width="66.71" height="66.71" fill="#c8c8c8"/><rect x="66.71428571428571" y="0" width="66.71428571428571" height="66.71428571428571" fill="#ffffff"/><rect x="66.71" y="0" width="33.36" height="33.36" fill="#c8c8c8"/><path d="M 66.71 0 A 33.36 33.36 0 0 0 100.07 33.36 L 100.07 0L66.71 0" fill="#ffffff"/><rect x="100.07" y="0" width="33.36" height="33.36" fill="#c8c8c8"/><path d="M 100.07 33.36 A 33.36 33.36 0 0 0 133.43 0 L 100.07 0L100.07 33.36" fill="#c8c8c8"/><rect x="66.71" y="33.36" width="33.36" height="33.36" fill="#c8c8c8"/><path d="M 66.71 66.72 A 33.36 33.36 0 0 1  100.07 33.36 L 100.07 66.72L66.71 66.72" fill="#c8c8c8"/><rect x="100.07" y="33.36" width="33.36" height="33.36" fill="#ffffff"/><path d="M 100.07 33.36 A 33.36 33.36 0 0 1 133.43 66.72 L 100.07 66.72L100.07 33.36" fill="#ffffff"/><rect x="133.42857142857142" y="0" width="66.71428571428571" height="66.71428571428571" fill="#ffffff"/><rect x="133.43" y="0" width="33.36" height="33.36" fill="#ffffff"/><path d="M 133.43 0 A 33.36 33.36 0 0 1 166.79000000000002 33.36 L 133.43 33.36L133.43 0" fill="#c8c8c8"/><rect x="166.79" y="0" width="33.36" height="33.36" fill="#ffffff"/><path d="M 166.79 33.36 A 33.36 33.36 0 0 1  200.14999999999998 0 L 200.14999999999998 33.36L166.79 33.36" fill="#ffffff"/><rect x="133.43" y="33.36" width="33.36" height="33.36" fill="#ffffff"/><path d="M 133.43 66.72 A 33.36 33.36 0 0 0 166.79000000000002 33.36 L 133.43 33.36L133.43 66.72" fill="#ffffff"/><rect x="166.79" y="33.36" width="33.36" height="33.36" fill="#c8c8c8"/><path d="M 166.79 33.36 A 33.36 33.36 0 0 0 200.14999999999998 66.72 L 200.14999999999998 33.36L166.79 33.36" fill="#c8c8c8"/><rect x="200.1428571428571" y="0" width="66.71428571428571" height="66.71428571428571" fill="#ffffff"/><rect x="200.14" y="0" width="33.36" height="33.36" fill="#c8c8c8"/><path d="M 200.14 0 A 33.36 33.36 0 0 0 233.5 33.36 L 233.5 0L200.14 0" fill="#ffffff"/><rect x="233.5" y="0" width="33.36" height="33.36" fill="#c8c8c8"/><path d="M 233.5 33.36 A 33.36 33.36 0 0 0 266.86 0 L 233.5 0L233.5 33.36" fill="#c8c8c8"/><rect x="200.14" y="33.36" width="33.36" height="33.36" fill="#ffffff"/><path d="M 200.14 66.72 A 33.36 33.36 0 0 1  233.5 33.36 L 233.5 66.72L200.14 66.72" fill="#c8c8c8"/><rect x="233.5" y="33.36" width="33.36" height="33.36" fill="#c8c8c8"/><path d="M 233.5 33.36 A 33.36 33.36 0 0 1 266.86 66.72 L 233.5 66.72L233.5 33.36" fill="#c8c8c8"/><rect x="266.86" y="0" width="66.71" height="66.71" fill="#ffffff"/><path d="M 266.86 0 A 66.71 66.71 0 0 0 333.57 66.71 L 333.57 0L266.86 0" fill="#c8c8c8"/><rect x="333.57142857142856" y="0" width="66.71428571428571" height="66.71428571428571" fill="#ffffff"/><rect x="333.57" y="0" width="33.36" height="33.36" fill="#c8c8c8"/><path d="M 333.57 0 A 33.36 33.36 0 0 1 366.93 33.36 L 333.57 33.36L333.57 0" fill="#ffffff"/><rect x="366.93" y="0" width="33.36" height="33.36" fill="#ffffff"/><path d="M 366.93 33.36 A 33.36 33.36 0 0 1  400.29 0 L 400.29 33.36L366.93 33.36" fill="#ffffff"/><rect x="333.57" y="33.36" width="33.36" height="33.36" fill="#ffffff"/><path d="M 333.57 66.72 A 33.36 33.36 0 0 0 366.93 33.36 L 333.57 33.36L333.57 66.72" fill="#ffffff"/><rect x="366.93" y="33.36" width="33.36" height="33.36" fill="#c8c8c8"/><path d="M 366.93 33.36 A 33.36 33.36 0 0 0 400.29 66.72 L 400.29 33.36L366.93 33.36" fill="#c8c8c8"/><rect x="400.2857142857142" y="0" width="66.71428571428571" height="66.71428571428571" fill="#ffffff"/><rect x="400.29" y="0" width="33.36" height="33.36" fill="#c8c8c8"/><path d="M 400.29 33.36 A 33.36 33.36 0 0 1 433.65000000000003 0 L 433.65000000000003 8.34 A 25.02 25.02 0 0 0 408.63 33.36" fill="#ffffff"/><rect x="433.64" y="0" width="33.36" height="33.36" fill="#ffffff"/><path d="M 433.64 0 A 33.36 33.36 0 0 1 467 33.36 L 458.65999999999997 33.36 A 25.02 25.02 0 0 0 433.64 8.34" fill="#c8c8c8"/><rect x="400.29" y="33.36" width="33.36" height="33.36" fill="#c8c8c8"/><path d="M 400.29 33.36 A 33.36 33.36 0 0 0 433.65000000000003 66.72 L 433.65000000000003 58.379999999999995 A 25.02 25.02 0 0 1 408.63 33.36" fill="#ffffff"/><rect x="433.64" y="33.36" width="33.36" height="33.36" fill="#c8c8c8"/><path d="M 433.64 66.72 A 33.36 33.36 0 0 0 467 33.36 L 458.65999999999997 33.36 A 25.02 25.02 0 0 1 433.64 58.379999999999995" fill="#c8c8c8"/><rect x="467" y="0" width="66.71" height="66.71" fill="#ffffff"/><polygon points="467,0 533.71,66.71 467,66.71" fill="#ffffff"/><rect x="533.71" y="0" width="66.71" height="66.71" fill="#ffffff"/><rect x="533.71" y="0" width="66.71" height="66.71" fill="#ffffff"/><rect x="600.4285714285713" y="0" width="66.71428571428571" height="66.71428571428571" fill="#ffffff"/><rect x="600.43" y="0" width="33.36" height="33.36" fill="#ffffff"/><path d="M 600.43 33.36 A 33.36 33.36 0 0 0 633.79 0 L 600.43 0L600.43 33.36" fill="#ffffff"/><rect x="633.79" y="0" width="33.36" height="33.36" fill="#c8c8c8"/><path d="M 633.79 0 A 33.36 33.36 0 0 0 667.15 33.36 L 667.15 0L633.79 0" fill="#c8c8c8"/><rect x="600.43" y="33.36" width="33.36" height="33.36" fill="#c8c8c8"/><path d="M 600.43 33.36 A 33.36 33.36 0 0 1 633.79 66.72 L 600.43 66.72L600.43 33.36" fill="#c8c8c8"/><rect x="633.79" y="33.36" width="33.36" height="33.36" fill="#c8c8c8"/><path d="M 633.79 66.72 A 33.36 33.36 0 0 1  667.15 33.36 L 667.15 66.72L633.79 66.72" fill="#c8c8c8"/><rect x="667.1428571428571" y="0" width="66.71428571428571" height="66.71428571428571" fill="#ffffff"/><rect x="667.14" y="0" width="33.36" height="33.36" fill="#ffffff"/><polygon points="700.5,0 700.5,33.36 667.14,33.36" fill="#c8c8c8"/><rect x="700.5" y="0" width="33.36" height="33.36" fill="#c8c8c8"/><polygon points="700.5,0 733.86,0 700.5,33.36" fill="#ffffff"/><rect x="667.14" y="33.36" width="33.36" height="33.36" fill="#ffffff"/><polygon points="667.14,33.36 700.5,33.36 700.5,66.72" fill="#c8c8c8"/><rect x="700.5" y="33.36" width="33.36" height="33.36" fill="#c8c8c8"/><polygon points="700.5,33.36 733.86,66.72 700.5,66.72" fill="#c8c8c8"/><rect x="0" y="66.71" width="66.71" height="66.71" fill="#c8c8c8"/><polygon points="0,66.71 66.71,133.42 0,133.42" fill="#c8c8c8"/><rect x="66.71428571428571" y="66.71428571428571" width="66.71428571428571" height="66.71428571428571" fill="#ffffff"/><rect x="66.71" y="66.71" width="33.36" height="33.36" fill="#ffffff"/><path d="M 66.71 100.07 A 33.36 33.36 0 0 1  100.07 66.71 L 100.07 100.07L66.71 100.07" fill="#c8c8c8"/><rect x="100.07" y="66.71" width="33.36" height="33.36" fill="#c8c8c8"/><path d="M 100.07 66.71 A 33.36 33.36 0 0 1 133.43 100.07 L 100.07 100.07L100.07 66.71" fill="#ffffff"/><rect x="66.71" y="100.07" width="33.36" height="33.36" fill="#c8c8c8"/><path d="M 66.71 100.07 A 33.36 33.36 0 0 0 100.07 133.43 L 100.07 100.07L66.71 100.07" fill="#ffffff"/><rect x="100.07" y="100.07" width="33.36" height="33.36" fill="#ffffff"/><path d="M 100.07 133.43 A 33.36 33.36 0 0 0 133.43 100.07 L 100.07 100.07L100.07 133.43" fill="#ffffff"/><rect x="133.42857142857142" y="66.71428571428571" width="66.71428571428571" height="66.71428571428571" fill="#ffffff"/><rect x="133.43" y="66.71" width="33.36" height="33.36" fill="#ffffff"/><circle cx="150.11" cy="83.38999999999999" r="16.68" fill="#c8c8c8"/><rect x="166.79" y="66.71" width="33.36" height="33.36" fill="#ffffff"/><rect x="166.79" y="66.71" width="33.36" height="33.36" fill="#ffffff"/><rect x="133.43" y="100.07" width="33.36" height="33.36" fill="#ffffff"/><circle cx="150.11" cy="116.75" r="16.68" fill="#c8c8c8"/><rect x="166.79" y="100.07" width="33.36" height="33.36" fill="#c8c8c8"/><rect x="166.79" y="100.07" width="33.36" height="33.36" fill="#c8c8c8"/><rect x="200.1428571428571" y="66.71428571428571" width="66.71428571428571" height="66.71428571428571" fill="#ffffff"/><rect x="200.14" y="66.71" width="33.36" height="33.36" fill="#c8c8c8"/><path d="M 200.14 66.71 A 33.36 33.36 0 0 0 233.5 100.07 L 233.5 66.71L200.14 66.71" fill="#ffffff"/><rect x="233.5" y="66.71" width="33.36" height="33.36" fill="#c8c8c8"/><path d="M 233.5 100.07 A 33.36 33.36 0 0 0 266.86 66.71 L 233.5 66.71L233.5 100.07" fill="#ffffff"/><rect x="200.14" y="100.07" width="33.36" height="33.36" fill="#c8c8c8"/><path d="M 200.14 133.43 A 33.36 33.36 0 0 1  233.5 100.07 L 233.5 133.43L200.14 133.43" fill="#c8c8c8"/><rect x="233.5" y="100.07" width="33.36" height="33.36" fill="#c8c8c8"/><path d="M 233.5 100.07 A 33.36 33.36 0 0 1 266.86 133.43 L 233.5 133.43L233.5 100.07" fill="#c8c8c8"/><rect x="266.86" y="66.71" width="66.71" height="66.71" fill="#c8c8c8"/><path d="M 266.86 133.42 A 66.71 66.71 0 0 0 333.57 66.71 L 266.86 66.71L266.86 133.42" fill="#c8c8c8"/><rect x="333.57142857142856" y="66.71428571428571" width="66.71428571428571" height="66.71428571428571" fill="#ffffff"/><rect x="333.57" y="66.71" width="33.36" height="33.36" fill="#c8c8c8"/><path d="M 333.57 66.71 A 33.36 33.36 0 0 1 366.93 100.07 L 333.57 100.07L333.57 66.71" fill="#ffffff"/><rect x="366.93" y="66.71" width="33.36" height="33.36" fill="#c8c8c8"/><path d="M 366.93 100.07 A 33.36 33.36 0 0 1  400.29 66.71 L 400.29 100.07L366.93 100.07" fill="#c8c8c8"/><rect x="333.57" y="100.07" width="33.36" height="33.36" fill="#c8c8c8"/><path d="M 333.57 133.43 A 33.36 33.36 0 0 0 366.93 100.07 L 333.57 100.07L333.57 133.43" fill="#c8c8c8"/><rect x="366.93" y="100.07" width="33.36" height="33.36" fill="#ffffff"/><path d="M 366.93 100.07 A 33.36 33.36 0 0 0 400.29 133.43 L 400.29 100.07L366.93 100.07" fill="#c8c8c8"/><rect x="400.2857142857142" y="66.71428571428571" width="66.71428571428571" height="66.71428571428571" fill="#ffffff"/><rect x="400.29" y="66.71" width="33.36" height="33.36" fill="#ffffff"/><path d="M 400.29 66.71 A 33.36 33.36 0 0 0 433.65000000000003 100.07 L 433.65000000000003 66.71L400.29 66.71" fill="#ffffff"/><rect x="433.64" y="66.71" width="33.36" height="33.36" fill="#c8c8c8"/><path d="M 433.64 100.07 A 33.36 33.36 0 0 0 467 66.71 L 433.64 66.71L433.64 100.07" fill="#c8c8c8"/><rect x="400.29" y="100.07" width="33.36" height="33.36" fill="#c8c8c8"/><path d="M 400.29 133.43 A 33.36 33.36 0 0 1  433.65000000000003 100.07 L 433.65000000000003 133.43L400.29 133.43" fill="#ffffff"/><rect x="433.64" y="100.07" width="33.36" height="33.36" fill="#ffffff"/><path d="M 433.64 100.07 A 33.36 33.36 0 0 1 467 133.43 L 433.64 133.43L433.64 100.07" fill="#c8c8c8"/><rect x="466.99999999999994" y="66.71428571428571" width="66.71428571428571" height="66.71428571428571" fill="#ffffff"/><rect x="467" y="66.71" width="33.36" height="33.36" fill="#c8c8c8"/><path d="M 467 100.07 A 33.36 33.36 0 0 0 500.36 66.71 L 467 66.71L467 100.07" fill="#ffffff"/><rect x="500.36" y="66.71" width="33.36" height="33.36" fill="#ffffff"/><path d="M 500.36 66.71 A 33.36 33.36 0 0 0 533.72 100.07 L 533.72 66.71L500.36 66.71" fill="#ffffff"/><rect x="467" y="100.07" width="33.36" height="33.36" fill="#ffffff"/><path d="M 467 100.07 A 33.36 33.36 0 0 1 500.36 133.43 L 467 133.43L467 100.07" fill="#c8c8c8"/><rect x="500.36" y="100.07" width="33.36" height="33.36" fill="#c8c8c8"/><path d="M 500.36 133.43 A 33.36 33.36 0 0 1  533.72 100.07 L 533.72 133.43L500.36 133.43" fill="#ffffff"/><rect x="533.7142857142857" y="66.71428571428571" width="66.71428571428571" height="66.71428571428571" fill="#ffffff"/><rect x="533.71" y="66.71" width="33.36" height="33.36" fill="#ffffff"/><circle cx="550.39" cy="83.38999999999999" r="16.68" fill="#ffffff"/><rect x="567.07" y="66.71" width="33.36" height="33.36" fill="#c8c8c8"/><rect x="567.07" y="66.71" width="33.36" height="33.36" fill="#c8c8c8"/><rect x="533.71" y="100.07" width="33.36" height="33.36" fill="#c8c8c8"/><circle cx="550.39" cy="116.75" r="16.68" fill="#c8c8c8"/><rect x="567.07" y="100.07" width="33.36" height="33.36" fill="#ffffff"/><rect x="567.07" y="100.07" width="33.36" height="33.36" fill="#ffffff"/><rect x="600.43" y="66.71" width="66.71" height="66.71" fill="#ffffff"/><path d="M 600.43 66.71 A 66.71 66.71 0 0 0 667.14 133.42 L 667.14 66.71L600.43 66.71" fill="#ffffff"/><rect x="667.14" y="66.71" width="66.71" height="66.71" fill="#ffffff"/><polygon points="667.14,66.71 733.85,66.71 667.14,133.42" fill="#ffffff"/><rect x="0" y="133.42857142857142" width="66.71428571428571" height="66.71428571428571" fill="#ffffff"/><rect x="0" y="133.43" width="33.36" height="33.36" fill="#c8c8c8"/><path d="M 0 133.43 A 33.36 33.36 0 0 1 33.36 166.79000000000002 L 0 166.79000000000002L0 133.43" fill="#c8c8c8"/><rect x="33.36" y="133.43" width="33.36" height="33.36" fill="#c8c8c8"/><path d="M 33.36 166.79000000000002 A 33.36 33.36 0 0 1  66.72 133.43 L 66.72 166.79000000000002L33.36 166.79000000000002" fill="#c8c8c8"/><rect x="0" y="166.79" width="33.36" height="33.36" fill="#c8c8c8"/><path d="M 0 200.14999999999998 A 33.36 33.36 0 0 0 33.36 166.79 L 0 166.79L0 200.14999999999998" fill="#c8c8c8"/><rect x="33.36" y="166.79" width="33.36" height="33.36" fill="#ffffff"/><path d="M 33.36 166.79 A 33.36 33.36 0 0 0 66.72 200.14999999999998 L 66.72 166.79L33.36 166.79" fill="#ffffff"/><rect x="66.71428571428571" y="133.42857142857142" width="66.71428571428571" height="66.71428571428571" fill="#ffffff"/><rect x="66.71" y="133.43" width="33.36" height="33.36" fill="#ffffff"/><path d="M 66.71 133.43 A 33.36 33.36 0 0 0 100.07 166.79000000000002 L 100.07 133.43L66.71 133.43" fill="#c8c8c8"/><rect x="100.07" y="133.43" width="33.36" height="33.36" fill="#ffffff"/><path d="M 100.07 166.79000000000002 A 33.36 33.36 0 0 0 133.43 133.43 L 100.07 133.43L100.07 166.79000000000002" fill="#ffffff"/><rect x="66.71" y="166.79" width="33.36" height="33.36" fill="#ffffff"/><path d="M 66.71 200.14999999999998 A 33.36 33.36 0 0 1  100.07 166.79 L 100.07 200.14999999999998L66.71 200.14999999999998" fill="#c8c8c8"/><rect x="100.07" y="166.79" width="33.36" height="33.36" fill="#ffffff"/><path d="M 100.07 166.79 A 33.36 33.36 0 0 1 133.43 200.14999999999998 L 100.07 200.14999999999998L100.07 166.79" fill="#ffffff"/><rect x="133.42857142857142" y="133.42857142857142" width="66.71428571428571" height="66.71428571428571" fill="#ffffff"/><rect x="133.43" y="133.43" width="33.36" height="33.36" fill="#c8c8c8"/><path d="M 133.43 133.43 A 33.36 33.36 0 0 0 166.79000000000002 166.79000000000002 L 166.79000000000002 133.43L133.43 133.43" fill="#ffffff"/><rect x="166.79" y="133.43" width="33.36" height="33.36" fill="#ffffff"/><path d="M 166.79 166.79000000000002 A 33.36 33.36 0 0 0 200.14999999999998 133.43 L 166.79 133.43L166.79 166.79000000000002" fill="#ffffff"/><rect x="133.43" y="166.79" width="33.36" height="33.36" fill="#c8c8c8"/><path d="M 133.43 200.14999999999998 A 33.36 33.36 0 0 1  166.79000000000002 166.79 L 166.79000000000002 200.14999999999998L133.43 200.14999999999998" fill="#c8c8c8"/><rect x="166.79" y="166.79" width="33.36" height="33.36" fill="#ffffff"/><path d="M 166.79 166.79 A 33.36 33.36 0 0 1 200.14999999999998 200.14999999999998 L 166.79 200.14999999999998L166.79 166.79" fill="#ffffff"/><rect x="200.14" y="133.43" width="66.71" height="66.71" fill="#ffffff"/><path d="M 200.14 133.43 A 66.71 66.71 0 0 0 266.84999999999997 200.14 L 266.84999999999997 133.43L200.14 133.43" fill="#c8c8c8"/><rect x="266.86" y="133.43" width="66.71" height="66.71" fill="#c8c8c8"/><path d="M 266.86 133.43 A 66.71 66.71 0 0 1 333.57 200.14 L 266.86 200.14L266.86 133.43" fill="#c8c8c8"/><rect x="333.57" y="133.43" width="66.71" height="66.71" fill="#ffffff"/><polygon points="333.57,133.43 400.28,200.14 333.57,200.14" fill="#c8c8c8"/><rect x="400.29" y="133.43" width="66.71" height="66.71" fill="#ffffff"/><polygon points="400.29,133.43 467,133.43 467,200.14" fill="#ffffff"/><rect x="467" y="133.43" width="66.71" height="66.71" fill="#c8c8c8"/><rect x="467" y="133.43" width="66.71" height="66.71" fill="#c8c8c8"/><rect x="533.7142857142857" y="133.42857142857142" width="66.71428571428571" height="66.71428571428571" fill="#ffffff"/><rect x="533.71" y="133.43" width="33.36" height="33.36" fill="#c8c8c8"/><polygon points="567.07,133.43 567.07,166.79000000000002 533.71,166.79000000000002" fill="#c8c8c8"/><rect x="567.07" y="133.43" width="33.36" height="33.36" fill="#ffffff"/><polygon points="567.07,133.43 600.4300000000001,166.79000000000002 567.07,166.79000000000002" fill="#ffffff"/><rect x="533.71" y="166.79" width="33.36" height="33.36" fill="#c8c8c8"/><polygon points="533.71,166.79 567.07,166.79 567.07,200.14999999999998" fill="#ffffff"/><rect x="567.07" y="166.79" width="33.36" height="33.36" fill="#c8c8c8"/><polygon points="567.07,166.79 600.4300000000001,166.79 567.07,200.14999999999998" fill="#ffffff"/><rect x="600.43" y="133.43" width="66.71" height="66.71" fill="#ffffff"/><path d="M 600.43 133.43 A 66.71 66.71 0 0 1  667.14 200.14 L 600.43 133.43 A 66.71 66.71 0 0 0 667.14 200.14" fill="#ffffff"/><rect x="667.14" y="133.43" width="66.71" height="66.71" fill="#ffffff"/><rect x="667.14" y="133.43" width="66.71" height="66.71" fill="#c8c8c8"/><rect x="0" y="200.14" width="66.71" height="66.71" fill="#ffffff"/><rect x="0" y="200.14" width="66.71" height="66.71" fill="#ffffff"/><rect x="66.71" y="200.14" width="66.71" height="66.71" fill="#ffffff"/><rect x="66.71" y="200.14" width="66.71" height="66.71" fill="#ffffff"/><rect x="133.42857142857142" y="200.1428571428571" width="66.71428571428571" height="66.71428571428571" fill="#ffffff"/><rect x="133.43" y="200.14" width="33.36" height="33.36" fill="#c8c8c8"/><polygon points="166.79000000000002,200.14 166.79000000000002,233.5 133.43,233.5" fill="#c8c8c8"/><rect x="166.79" y="200.14" width="33.36" height="33.36" fill="#ffffff"/><polygon points="166.79,200.14 200.14999999999998,233.5 166.79,233.5" fill="#c8c8c8"/><rect x="133.43" y="233.5" width="33.36" height="33.36" fill="#ffffff"/><polygon points="133.43,233.5 166.79000000000002,233.5 166.79000000000002,266.86" fill="#ffffff"/><rect x="166.79" y="233.5" width="33.36" height="33.36" fill="#ffffff"/><polygon points="166.79,233.5 200.14999999999998,233.5 166.79,266.86" fill="#ffffff"/><rect x="200.14" y="200.14" width="66.71" height="66.71" fill="#c8c8c8"/><rect x="200.14" y="200.14" width="66.71" height="66.71" fill="#ffffff"/><rect x="266.86" y="200.14" width="66.71" height="66.71" fill="#ffffff"/><path d="M 266.86 200.14 A 66.71 66.71 0 0 1 333.57 266.84999999999997 L 266.86 266.84999999999997L266.86 200.14" fill="#ffffff"/><rect x="333.57" y="200.14" width="66.71" height="66.71" fill="#c8c8c8"/><polygon points="333.57,200.14 400.28,200.14 333.57,266.84999999999997" fill="#ffffff"/><rect x="400.29" y="200.14" width="66.71" height="66.71" fill="#ffffff"/><rect x="400.29" y="200.14" width="66.71" height="66.71" fill="#ffffff"/><rect x="467" y="200.14" width="66.71" height="66.71" fill="#c8c8c8"/><path d="M 467 266.84999999999997 A 66.71 66.71 0 0 1  533.71 200.14 L 533.71 266.84999999999997L467 266.84999999999997" fill="#ffffff"/><rect x="533.7142857142857" y="200.1428571428571" width="66.71428571428571" height="66.71428571428571" fill="#ffffff"/><rect x="533.71" y="200.14" width="33.36" height="33.36" fill="#ffffff"/><polygon points="567.07,200.14 567.07,233.5 533.71,233.5" fill="#ffffff"/><rect x="567.07" y="200.14" width="33.36" height="33.36" fill="#ffffff"/><polygon points="567.07,200.14 600.4300000000001,200.14 567.07,233.5" fill="#c8c8c8"/><rect x="533.71" y="233.5" width="33.36" height="33.36" fill="#ffffff"/><polygon points="533.71,233.5 567.07,233.5 567.07,266.86" fill="#ffffff"/><rect x="567.07" y="233.5" width="33.36" height="33.36" fill="#ffffff"/><polygon points="567.07,233.5 600.4300000000001,266.86 567.07,266.86" fill="#c8c8c8"/><rect x="600.4285714285713" y="200.1428571428571" width="66.71428571428571" height="66.71428571428571" fill="#ffffff"/><rect x="600.43" y="200.14" width="33.36" height="33.36" fill="#c8c8c8"/><polygon points="633.79,200.14 633.79,233.5 600.43,233.5" fill="#ffffff"/><rect x="633.79" y="200.14" width="33.36" height="33.36" fill="#c8c8c8"/><polygon points="633.79,200.14 667.15,200.14 633.79,233.5" fill="#c8c8c8"/><rect x="600.43" y="233.5" width="33.36" height="33.36" fill="#ffffff"/><polygon points="600.43,233.5 633.79,233.5 633.79,266.86" fill="#ffffff"/><rect x="633.79" y="233.5" width="33.36" height="33.36" fill="#ffffff"/><polygon points="633.79,233.5 667.15,266.86 633.79,266.86" fill="#c8c8c8"/><rect x="667.1428571428571" y="200.1428571428571" width="66.71428571428571" height="66.71428571428571" fill="#ffffff"/><rect x="667.14" y="200.14" width="33.36" height="33.36" fill="#ffffff"/><circle cx="683.8199999999999" cy="216.82" r="16.68" fill="#ffffff"/><rect x="700.5" y="200.14" width="33.36" height="33.36" fill="#c8c8c8"/><rect x="700.5" y="200.14" width="33.36" height="33.36" fill="#ffffff"/><rect x="667.14" y="233.5" width="33.36" height="33.36" fill="#ffffff"/><circle cx="683.8199999999999" cy="250.18" r="16.68" fill="#c8c8c8"/><rect x="700.5" y="233.5" width="33.36" height="33.36" fill="#ffffff"/><rect x="700.5" y="233.5" width="33.36" height="33.36" fill="#ffffff"/><rect x="0" y="266.85714285714283" width="66.71428571428571" height="66.71428571428571" fill="#ffffff"/><rect x="0" y="266.86" width="33.36" height="33.36" fill="#c8c8c8"/><circle cx="16.68" cy="283.54" r="16.68" fill="#c8c8c8"/><rect x="33.36" y="266.86" width="33.36" height="33.36" fill="#ffffff"/><rect x="33.36" y="266.86" width="33.36" height="33.36" fill="#c8c8c8"/><rect x="0" y="300.21" width="33.36" height="33.36" fill="#ffffff"/><circle cx="16.68" cy="316.89" r="16.68" fill="#ffffff"/><rect x="33.36" y="300.21" width="33.36" height="33.36" fill="#ffffff"/><rect x="33.36" y="300.21" width="33.36" height="33.36" fill="#ffffff"/><rect x="66.71" y="266.86" width="66.71" height="66.71" fill="#ffffff"/><rect x="66.71" y="266.86" width="66.71" height="66.71" fill="#c8c8c8"/><rect x="133.42857142857142" y="266.85714285714283" width="66.71428571428571" height="66.71428571428571" fill="#ffffff"/><rect x="133.43" y="266.86" width="33.36" height="33.36" fill="#c8c8c8"/><path d="M 133.43 300.22 A 33.36 33.36 0 0 1  166.79000000000002 266.86 L 166.79000000000002 300.22L133.43 300.22" fill="#ffffff"/><rect x="166.79" y="266.86" width="33.36" height="33.36" fill="#c8c8c8"/><path d="M 166.79 266.86 A 33.36 33.36 0 0 1 200.14999999999998 300.22 L 166.79 300.22L166.79 266.86" fill="#ffffff"/><rect x="133.43" y="300.21" width="33.36" height="33.36" fill="#ffffff"/><path d="M 133.43 300.21 A 33.36 33.36 0 0 0 166.79000000000002 333.57 L 166.79000000000002 300.21L133.43 300.21" fill="#c8c8c8"/><rect x="166.79" y="300.21" width="33.36" height="33.36" fill="#c8c8c8"/><path d="M 166.79 333.57 A 33.36 33.36 0 0 0 200.14999999999998 300.21 L 166.79 300.21L166.79 333.57" fill="#ffffff"/><rect x="200.14" y="266.86" width="66.71" height="66.71" fill="#c8c8c8"/><rect x="200.14" y="266.86" width="66.71" height="66.71" fill="#ffffff"/><rect x="266.86" y="266.86" width="66.71" height="66.71" fill="#c8c8c8"/><rect x="266.86" y="266.86" width="66.71" height="66.71" fill="#ffffff"/><rect x="333.57142857142856" y="266.85714285714283" width="66.71428571428571" height="66.71428571428571" fill="#ffffff"/><rect x="333.57" y="266.86" width="33.36" height="33.36" fill="#c8c8c8"/><polygon points="366.93,266.86 366.93,300.22 333.57,300.22" fill="#ffffff"/><rect x="366.93" y="266.86" width="33.36" height="33.36" fill="#ffffff"/><polygon points="366.93,266.86 400.29,266.86 366.93,300.22" fill="#ffffff"/><rect x="333.57" y="300.21" width="33.36" height="33.36" fill="#c8c8c8"/><polygon points="333.57,300.21 366.93,300.21 366.93,333.57" fill="#ffffff"/><rect x="366.93" y="300.21" width="33.36" height="33.36" fill="#ffffff"/><polygon points="366.93,300.21 400.29,333.57 366.93,333.57" fill="#ffffff"/><rect x="400.2857142857142" y="266.85714285714283" width="66.71428571428571" height="66.71428571428571" fill="#ffffff"/><rect x="400.29" y="266.86" width="33.36" height="33.36" fill="#ffffff"/><circle cx="416.97" cy="283.54" r="16.68" fill="#c8c8c8"/><rect x="433.64" y="266.86" width="33.36" height="33.36" fill="#ffffff"/><rect x="433.64" y="266.86" width="33.36" height="33.36" fill="#c8c8c8"/><rect x="400.29" y="300.21" width="33.36" height="33.36" fill="#ffffff"/><circle cx="416.97" cy="316.89" r="16.68" fill="#ffffff"/><rect x="433.64" y="300.21" width="33.36" height="33.36" fill="#c8c8c8"/><rect x="433.64" y="300.21" width="33.36" height="33.36" fill="#c8c8c8"/><rect x="467" y="266.86" width="66.71" height="66.71" fill="#c8c8c8"/><path d="M 467 333.57 A 66.71 66.71 0 0 1  533.71 266.86 L 533.71 333.57L467 333.57" fill="#c8c8c8"/><rect x="533.7142857142857" y="266.85714285714283" width="66.71428571428571" height="66.71428571428571" fill="#ffffff"/><rect x="533.71" y="266.86" width="33.36" height="33.36" fill="#ffffff"/><path d="M 533.71 266.86 A 33.36 33.36 0 0 0 567.07 300.22 L 567.07 266.86L533.71 266.86" fill="#c8c8c8"/><rect x="567.07" y="266.86" width="33.36" height="33.36" fill="#ffffff"/><path d="M 567.07 300.22 A 33.36 33.36 0 0 0 600.4300000000001 266.86 L 567.07 266.86L567.07 300.22" fill="#ffffff"/><rect x="533.71" y="300.21" width="33.36" height="33.36" fill="#c8c8c8"/><path d="M 533.71 333.57 A 33.36 33.36 0 0 1  567.07 300.21 L 567.07 333.57L533.71 333.57" fill="#c8c8c8"/><rect x="567.07" y="300.21" width="33.36" height="33.36" fill="#c8c8c8"/><path d="M 567.07 300.21 A 33.36 33.36 0 0 1 600.4300000000001 333.57 L 567.07 333.57L567.07 300.21" fill="#c8c8c8"/><rect x="600.4285714285713" y="266.85714285714283" width="66.71428571428571" height="66.71428571428571" fill="#ffffff"/><rect x="600.43" y="266.86" width="33.36" height="33.36" fill="#c8c8c8"/><path d="M 600.43 300.22 A 33.36 33.36 0 0 1  633.79 266.86 L 633.79 300.22L600.43 300.22" fill="#ffffff"/><rect x="633.79" y="266.86" width="33.36" height="33.36" fill="#ffffff"/><path d="M 633.79 266.86 A 33.36 33.36 0 0 1 667.15 300.22 L 633.79 300.22L633.79 266.86" fill="#ffffff"/><rect x="600.43" y="300.21" width="33.36" height="33.36" fill="#c8c8c8"/><path d="M 600.43 300.21 A 33.36 33.36 0 0 0 633.79 333.57 L 633.79 300.21L600.43 300.21" fill="#ffffff"/><rect x="633.79" y="300.21" width="33.36" height="33.36" fill="#ffffff"/><path d="M 633.79 333.57 A 33.36 33.36 0 0 0 667.15 300.21 L 633.79 300.21L633.79 333.57" fill="#ffffff"/><rect x="667.1428571428571" y="266.85714285714283" width="66.71428571428571" height="66.71428571428571" fill="#ffffff"/><rect x="667.14" y="266.86" width="33.36" height="33.36" fill="#ffffff"/><path d="M 667.14 300.22 A 33.36 33.36 0 0 1 700.5 266.86 L 700.5 275.2 A 25.02 25.02 0 0 0 675.48 300.22" fill="#c8c8c8"/><rect x="700.5" y="266.86" width="33.36" height="33.36" fill="#c8c8c8"/><path d="M 700.5 266.86 A 33.36 33.36 0 0 1 733.86 300.22 L 725.52 300.22 A 25.02 25.02 0 0 0 700.5 275.2" fill="#c8c8c8"/><rect x="667.14" y="300.21" width="33.36" height="33.36" fill="#c8c8c8"/><path d="M 667.14 300.21 A 33.36 33.36 0 0 0 700.5 333.57 L 700.5 325.22999999999996 A 25.02 25.02 0 0 1 675.48 300.21" fill="#c8c8c8"/><rect x="700.5" y="300.21" width="33.36" height="33.36" fill="#ffffff"/><path d="M 700.5 333.57 A 33.36 33.36 0 0 0 733.86 300.21 L 725.52 300.21 A 25.02 25.02 0 0 1 700.5 325.22999999999996" fill="#ffffff"/><rect x="0" y="333.57" width="66.71" height="66.71" fill="#ffffff"/><path d="M 0 333.57 A 66.71 66.71 0 0 1 66.71 400.28 L 0 400.28L0 333.57" fill="#c8c8c8"/><rect x="66.71" y="333.57" width="66.71" height="66.71" fill="#c8c8c8"/><polygon points="66.71,333.57 133.42,333.57 66.71,400.28" fill="#ffffff"/><rect x="133.42857142857142" y="333.57142857142856" width="66.71428571428571" height="66.71428571428571" fill="#ffffff"/><rect x="133.43" y="333.57" width="33.36" height="33.36" fill="#c8c8c8"/><path d="M 133.43 366.93 A 33.36 33.36 0 0 0 166.79000000000002 333.57 L 133.43 333.57L133.43 366.93" fill="#c8c8c8"/><rect x="166.79" y="333.57" width="33.36" height="33.36" fill="#ffffff"/><path d="M 166.79 333.57 A 33.36 33.36 0 0 0 200.14999999999998 366.93 L 200.14999999999998 333.57L166.79 333.57" fill="#c8c8c8"/><rect x="133.43" y="366.93" width="33.36" height="33.36" fill="#c8c8c8"/><path d="M 133.43 366.93 A 33.36 33.36 0 0 1 166.79000000000002 400.29 L 133.43 400.29L133.43 366.93" fill="#ffffff"/><rect x="166.79" y="366.93" width="33.36" height="33.36" fill="#c8c8c8"/><path d="M 166.79 400.29 A 33.36 33.36 0 0 1  200.14999999999998 366.93 L 200.14999999999998 400.29L166.79 400.29" fill="#c8c8c8"/><rect x="200.1428571428571" y="333.57142857142856" width="66.71428571428571" height="66.71428571428571" fill="#ffffff"/><rect x="200.14" y="333.57" width="33.36" height="33.36" fill="#c8c8c8"/><path d="M 200.14 333.57 A 33.36 33.36 0 0 1 233.5 366.93 L 200.14 366.93L200.14 333.57" fill="#c8c8c8"/><rect x="233.5" y="333.57" width="33.36" height="33.36" fill="#ffffff"/><path d="M 233.5 366.93 A 33.36 33.36 0 0 1  266.86 333.57 L 266.86 366.93L233.5 366.93" fill="#ffffff"/><rect x="200.14" y="366.93" width="33.36" height="33.36" fill="#ffffff"/><path d="M 200.14 400.29 A 33.36 33.36 0 0 0 233.5 366.93 L 200.14 366.93L200.14 400.29" fill="#ffffff"/><rect x="233.5" y="366.93" width="33.36" height="33.36" fill="#ffffff"/><path d="M 233.5 366.93 A 33.36 33.36 0 0 0 266.86 400.29 L 266.86 366.93L233.5 366.93" fill="#ffffff"/><rect x="266.85714285714283" y="333.57142857142856" width="66.71428571428571" height="66.71428571428571" fill="#ffffff"/><rect x="266.86" y="333.57" width="33.36" height="33.36" fill="#ffffff"/><path d="M 266.86 333.57 A 33.36 33.36 0 0 1 300.22 366.93 L 266.86 366.93L266.86 333.57" fill="#c8c8c8"/><rect x="300.21" y="333.57" width="33.36" height="33.36" fill="#ffffff"/><path d="M 300.21 366.93 A 33.36 33.36 0 0 1  333.57 333.57 L 333.57 366.93L300.21 366.93" fill="#ffffff"/><rect x="266.86" y="366.93" width="33.36" height="33.36" fill="#c8c8c8"/><path d="M 266.86 400.29 A 33.36 33.36 0 0 0 300.22 366.93 L 266.86 366.93L266.86 400.29" fill="#ffffff"/><rect x="300.21" y="366.93" width="33.36" height="33.36" fill="#ffffff"/><path d="M 300.21 366.93 A 33.36 33.36 0 0 0 333.57 400.29 L 333.57 366.93L300.21 366.93" fill="#c8c8c8"/><rect x="333.57" y="333.57" width="66.71" height="66.71" fill="#c8c8c8"/><path d="M 333.57 333.57 A 66.71 66.71 0 0 1  400.28 400.28 L 333.57 333.57 A 66.71 66.71 0 0 0 400.28 400.28" fill="#ffffff"/><rect x="400.29" y="333.57" width="66.71" height="66.71" fill="#c8c8c8"/><polygon points="400.29,333.57 467,333.57 400.29,400.28" fill="#ffffff"/><rect x="466.99999999999994" y="333.57142857142856" width="66.71428571428571" height="66.71428571428571" fill="#ffffff"/><rect x="467" y="333.57" width="33.36" height="33.36" fill="#c8c8c8"/><polygon points="500.36,333.57 500.36,366.93 467,366.93" fill="#ffffff"/><rect x="500.36" y="333.57" width="33.36" height="33.36" fill="#c8c8c8"/><polygon points="500.36,333.57 533.72,366.93 500.36,366.93" fill="#c8c8c8"/><rect x="467" y="366.93" width="33.36" height="33.36" fill="#ffffff"/><polygon points="467,366.93 500.36,366.93 500.36,400.29" fill="#c8c8c8"/><rect x="500.36" y="366.93" width="33.36" height="33.36" fill="#ffffff"/><polygon points="500.36,366.93 533.72,366.93 500.36,400.29" fill="#ffffff"/><rect x="533.71" y="333.57" width="66.71" height="66.71" fill="#c8c8c8"/><polygon points="533.71,333.57 600.4200000000001,333.57 533.71,400.28" fill="#ffffff"/><rect x="600.4285714285713" y="333.57142857142856" width="66.71428571428571" height="66.71428571428571" fill="#ffffff"/><rect x="600.43" y="333.57" width="33.36" height="33.36" fill="#ffffff"/><polygon points="633.79,333.57 633.79,366.93 600.43,366.93" fill="#c8c8c8"/><rect x="633.79" y="333.57" width="33.36" height="33.36" fill="#ffffff"/><polygon points="633.79,333.57 667.15,366.93 633.79,366.93" fill="#ffffff"/><rect x="600.43" y="366.93" width="33.36" height="33.36" fill="#ffffff"/><polygon points="600.43,366.93 633.79,366.93 633.79,400.29" fill="#c8c8c8"/><rect x="633.79" y="366.93" width="33.36" height="33.36" fill="#ffffff"/><polygon points="633.79,366.93 667.15,366.93 633.79,400.29" fill="#c8c8c8"/><rect x="667.1428571428571" y="333.57142857142856" width="66.71428571428571" height="66.71428571428571" fill="#ffffff"/><rect x="667.14" y="333.57" width="33.36" height="33.36" fill="#ffffff"/><path d="M 667.14 366.93 A 33.36 33.36 0 0 0 700.5 333.57 L 667.14 333.57L667.14 366.93" fill="#c8c8c8"/><rect x="700.5" y="333.57" width="33.36" height="33.36" fill="#ffffff"/><path d="M 700.5 333.57 A 33.36 33.36 0 0 0 733.86 366.93 L 733.86 333.57L700.5 333.57" fill="#ffffff"/><rect x="667.14" y="366.93" width="33.36" height="33.36" fill="#ffffff"/><path d="M 667.14 366.93 A 33.36 33.36 0 0 1 700.5 400.29 L 667.14 400.29L667.14 366.93" fill="#ffffff"/><rect x="700.5" y="366.93" width="33.36" height="33.36" fill="#ffffff"/><path d="M 700.5 400.29 A 33.36 33.36 0 0 1  733.86 366.93 L 733.86 400.29L700.5 400.29" fill="#ffffff"/><rect x="0" y="400.2857142857142" width="66.71428571428571" height="66.71428571428571" fill="#ffffff"/><rect x="0" y="400.29" width="33.36" height="33.36" fill="#ffffff"/><polygon points="33.36,400.29 33.36,433.65000000000003 0,433.65000000000003" fill="#c8c8c8"/><rect x="33.36" y="400.29" width="33.36" height="33.36" fill="#ffffff"/><polygon points="33.36,400.29 66.72,433.65000000000003 33.36,433.65000000000003" fill="#ffffff"/><rect x="0" y="433.64" width="33.36" height="33.36" fill="#ffffff"/><polygon points="0,433.64 33.36,433.64 33.36,467" fill="#ffffff"/><rect x="33.36" y="433.64" width="33.36" height="33.36" fill="#c8c8c8"/><polygon points="33.36,433.64 66.72,433.64 33.36,467" fill="#ffffff"/><rect x="66.71428571428571" y="400.2857142857142" width="66.71428571428571" height="66.71428571428571" fill="#ffffff"/><rect x="66.71" y="400.29" width="33.36" height="33.36" fill="#ffffff"/><circle cx="83.38999999999999" cy="416.97" r="16.68" fill="#ffffff"/><rect x="100.07" y="400.29" width="33.36" height="33.36" fill="#ffffff"/><rect x="100.07" y="400.29" width="33.36" height="33.36" fill="#c8c8c8"/><rect x="66.71" y="433.64" width="33.36" height="33.36" fill="#ffffff"/><circle cx="83.38999999999999" cy="450.32" r="16.68" fill="#ffffff"/><rect x="100.07" y="433.64" width="33.36" height="33.36" fill="#ffffff"/><rect x="100.07" y="433.64" width="33.36" height="33.36" fill="#ffffff"/><rect x="133.43" y="400.29" width="66.71" height="66.71" fill="#ffffff"/><polygon points="133.43,400.29 200.14,467 133.43,467" fill="#ffffff"/><rect x="200.14" y="400.29" width="66.71" height="66.71" fill="#ffffff"/><path d="M 200.14 467 A 66.71 66.71 0 0 1  266.84999999999997 400.29 L 266.84999999999997 467L200.14 467" fill="#ffffff"/><rect x="266.85714285714283" y="400.2857142857142" width="66.71428571428571" height="66.71428571428571" fill="#ffffff"/><rect x="266.86" y="400.29" width="33.36" height="33.36" fill="#c8c8c8"/><polygon points="300.22,400.29 300.22,433.65000000000003 266.86,433.65000000000003" fill="#ffffff"/><rect x="300.21" y="400.29" width="33.36" height="33.36" fill="#c8c8c8"/><polygon points="300.21,400.29 333.57,433.65000000000003 300.21,433.65000000000003" fill="#c8c8c8"/><rect x="266.86" y="433.64" width="33.36" height="33.36" fill="#c8c8c8"/><polygon points="266.86,433.64 300.22,433.64 300.22,467" fill="#ffffff"/><rect x="300.21" y="433.64" width="33.36" height="33.36" fill="#ffffff"/><polygon points="300.21,433.64 333.57,433.64 300.21,467" fill="#ffffff"/><rect x="333.57142857142856" y="400.2857142857142" width="66.71428571428571" height="66.71428571428571" fill="#ffffff"/><rect x="333.57" y="400.29" width="33.36" height="33.36" fill="#c8c8c8"/><polygon points="366.93,400.29 366.93,433.65000000000003 333.57,433.65000000000003" fill="#ffffff"/><rect x="366.93" y="400.29" width="33.36" height="33.36" fill="#ffffff"/><polygon points="366.93,400.29 400.29,433.65000000000003 366.93,433.65000000000003" fill="#ffffff"/><rect x="333.57" y="433.64" width="33.36" height="33.36" fill="#ffffff"/><polygon points="333.57,433.64 366.93,433.64 333.57,467" fill="#c8c8c8"/><rect x="366.93" y="433.64" width="33.36" height="33.36" fill="#ffffff"/><polygon points="366.93,433.64 400.29,433.64 400.29,467" fill="#c8c8c8"/><rect x="400.2857142857142" y="400.2857142857142" width="66.71428571428571" height="66.71428571428571" fill="#ffffff"/><rect x="400.29" y="400.29" width="33.36" height="33.36" fill="#c8c8c8"/><path d="M 400.29 400.29 A 33.36 33.36 0 0 1 433.65000000000003 433.65000000000003 L 400.29 433.65000000000003L400.29 400.29" fill="#ffffff"/><rect x="433.64" y="400.29" width="33.36" height="33.36" fill="#ffffff"/><path d="M 433.64 433.65000000000003 A 33.36 33.36 0 0 1  467 400.29 L 467 433.65000000000003L433.64 433.65000000000003" fill="#ffffff"/><rect x="400.29" y="433.64" width="33.36" height="33.36" fill="#c8c8c8"/><path d="M 400.29 467 A 33.36 33.36 0 0 0 433.65000000000003 433.64 L 400.29 433.64L400.29 467" fill="#ffffff"/><rect x="433.64" y="433.64" width="33.36" height="33.36" fill="#ffffff"/><path d="M 433.64 433.64 A 33.36 33.36 0 0 0 467 467 L 467 433.64L433.64 433.64" fill="#ffffff"/><rect x="467" y="400.29" width="66.71" height="66.71" fill="#c8c8c8"/><rect x="467" y="400.29" width="66.71" height="66.71" fill="#ffffff"/><rect x="533.71" y="400.29" width="66.71" height="66.71" fill="#c8c8c8"/><path d="M 533.71 467 A 66.71 66.71 0 0 1  600.4200000000001 400.29 L 600.4200000000001 467L533.71 467" fill="#c8c8c8"/><rect x="600.43" y="400.29" width="66.71" height="66.71" fill="#ffffff"/><rect x="600.43" y="400.29" width="66.71" height="66.71" fill="#ffffff"/><rect x="667.1428571428571" y="400.2857142857142" width="66.71428571428571" height="66.71428571428571" fill="#ffffff"/><rect x="667.14" y="400.29" width="33.36" height="33.36" fill="#c8c8c8"/><polygon points="700.5,400.29 700.5,433.65000000000003 667.14,433.65000000000003" fill="#c8c8c8"/><rect x="700.5" y="400.29" width="33.36" height="33.36" fill="#c8c8c8"/><polygon points="700.5,400.29 733.86,433.65000000000003 700.5,433.65000000000003" fill="#ffffff"/><rect x="667.14" y="433.64" width="33.36" height="33.36" fill="#ffffff"/><polygon points="667.14,433.64 700.5,433.64 667.14,467" fill="#ffffff"/><rect x="700.5" y="433.64" width="33.36" height="33.36" fill="#c8c8c8"/><polygon points="700.5,433.64 733.86,433.64 733.86,467" fill="#ffffff"/><rect x="0" y="467" width="66.71" height="66.71" fill="#ffffff"/><polygon points="0,467 66.71,467 0,533.71" fill="#ffffff"/><rect x="66.71" y="467" width="66.71" height="66.71" fill="#ffffff"/><path d="M 66.71 533.71 A 66.71 66.71 0 0 1  133.42 467 L 66.71 533.71 A 66.71 66.71 0 0 0 133.42 467" fill="#ffffff"/><rect x="133.43" y="467" width="66.71" height="66.71" fill="#c8c8c8"/><polygon points="200.14,467 200.14,533.71 133.43,533.71" fill="#c8c8c8"/><rect x="200.1428571428571" y="466.99999999999994" width="66.71428571428571" height="66.71428571428571" fill="#ffffff"/><rect x="200.14" y="467" width="33.36" height="33.36" fill="#c8c8c8"/><circle cx="216.82" cy="483.68" r="16.68" fill="#ffffff"/><rect x="233.5" y="467" width="33.36" height="33.36" fill="#c8c8c8"/><rect x="233.5" y="467" width="33.36" height="33.36" fill="#ffffff"/><rect x="200.14" y="500.36" width="33.36" height="33.36" fill="#ffffff"/><circle cx="216.82" cy="517.04" r="16.68" fill="#c8c8c8"/><rect x="233.5" y="500.36" width="33.36" height="33.36" fill="#ffffff"/><rect x="233.5" y="500.36" width="33.36" height="33.36" fill="#ffffff"/><rect x="266.86" y="467" width="66.71" height="66.71" fill="#ffffff"/><path d="M 266.86 533.71 A 66.71 66.71 0 0 1  333.57 467 L 266.86 533.71 A 66.71 66.71 0 0 0 333.57 467" fill="#c8c8c8"/><rect x="333.57" y="467" width="66.71" height="66.71" fill="#ffffff"/><rect x="333.57" y="467" width="66.71" height="66.71" fill="#c8c8c8"/><rect x="400.29" y="467" width="66.71" height="66.71" fill="#c8c8c8"/><path d="M 400.29 467 A 66.71 66.71 0 0 1 467 533.71 L 400.29 533.71L400.29 467" fill="#ffffff"/><rect x="467" y="467" width="66.71" height="66.71" fill="#c8c8c8"/><rect x="467" y="467" width="66.71" height="66.71" fill="#c8c8c8"/><rect x="533.71" y="467" width="66.71" height="66.71" fill="#c8c8c8"/><rect x="533.71" y="467" width="66.71" height="66.71" fill="#c8c8c8"/><rect x="600.4285714285713" y="466.99999999999994" width="66.71428571428571" height="66.71428571428571" fill="#ffffff"/><rect x="600.43" y="467" width="33.36" height="33.36" fill="#c8c8c8"/><circle cx="617.1099999999999" cy="483.68" r="16.68" fill="#ffffff"/><rect x="633.79" y="467" width="33.36" height="33.36" fill="#ffffff"/><rect x="633.79" y="467" width="33.36" height="33.36" fill="#ffffff"/><rect x="600.43" y="500.36" width="33.36" height="33.36" fill="#c8c8c8"/><circle cx="617.1099999999999" cy="517.04" r="16.68" fill="#ffffff"/><rect x="633.79" y="500.36" width="33.36" height="33.36" fill="#ffffff"/><rect x="633.79" y="500.36" width="33.36" height="33.36" fill="#ffffff"/><rect x="667.14" y="467" width="66.71" height="66.71" fill="#ffffff"/><rect x="667.14" y="467" width="66.71" height="66.71" fill="#ffffff"/></g></svg>